<?xml version="1.0" standalone="no"?>
<!DOCTYPE svg PUBLIC "-//W3C//DTD SVG 1.0//EN" "http://www.w3.org/TR/2001/REC-SVG-20010904/DTD/svg10.dtd">
<svg xmlns="http://www.w3.org/2000/svg" xmlns:loov="http://www.loov.io" width="600px" height="300px">
<g transform="translate(0.5, 0.5)">
<g loov:index="0">
<g>
<polyline stroke="black" fill="transparent" points="
0.00,300.00 
0.50,18.81 
1.00,24.78 
1.50,30.11 
2.00,26.34 
2.50,29.27 
3.00,41.66 
3.50,31.47 
4.00,28.58 
4.50,30.29 
5.00,31.85 
5.50,37.36 
6.00,36.94 
6.50,24.67 
7.00,18.02 
7.50,26.80 
8.00,27.33 
8.50,22.70 
9.00,29.27 
9.50,19.64 
10.00,31.85 
10.50,28.74 
11.00,23.05 
11.50,26.52 
12.00,28.73 
12.50,35.52 
13.00,23.84 
13.50,22.42 
14.00,19.71 
14.50,32.70 
15.00,33.64 
15.50,20.90 
16.00,14.66 
16.50,26.71 
17.00,17.40 
17.50,11.41 
18.00,24.75 
18.50,18.07 
19.00,18.08 
19.50,22.55 
20.00,8.03 
20.50,27.45 
21.00,37.69 
21.50,31.78 
22.00,14.74 
22.50,19.84 
23.00,23.39 
23.50,29.61 
24.00,22.47 
24.50,20.71 
25.00,17.51 
25.50,17.09 
26.00,29.68 
26.50,27.17 
27.00,32.71 
27.50,14.01 
28.00,20.81 
28.50,22.48 
29.00,13.29 
29.50,20.24 
30.00,9.25 
30.50,14.18 
31.00,14.59 
31.50,11.78 
32.00,14.55 
32.50,20.89 
33.00,26.87 
33.50,29.47 
34.00,11.56 
34.50,28.28 
35.00,17.70 
35.50,8.38 
36.00,27.99 
36.50,17.21 
37.00,17.31 
37.50,25.54 
38.00,2.84 
38.50,10.99 
39.00,32.56 
39.50,27.10 
40.00,14.00 
40.50,13.57 
41.00,16.51 
41.50,20.83 
42.00,23.83 
42.50,5.62 
43.00,5.66 
43.50,8.99 
44.00,8.38 
44.50,14.62 
45.00,23.23 
45.50,16.34 
46.00,23.18 
46.50,14.82 
47.00,21.33 
47.50,26.26 
48.00,26.54 
48.50,13.63 
49.00,14.26 
49.50,12.37 
50.00,11.24 
50.50,25.26 
51.00,18.06 
51.50,18.00 
52.00,8.89 
52.50,13.97 
53.00,23.12 
53.50,14.16 
54.00,30.38 
54.50,11.04 
55.00,11.70 
55.50,23.45 
56.00,5.67 
56.50,8.42 
57.00,22.02 
57.50,27.17 
58.00,15.03 
58.50,11.86 
59.00,6.28 
59.50,22.96 
60.00,14.60 
60.50,23.40 
61.00,3.41 
61.50,24.81 
62.00,17.36 
62.50,12.08 
63.00,14.22 
63.50,6.26 
64.00,14.19 
64.50,5.20 
65.00,5.48 
65.50,17.51 
66.00,17.69 
66.50,8.58 
67.00,14.20 
67.50,8.80 
68.00,11.85 
68.50,13.55 
69.00,25.41 
69.50,11.92 
70.00,5.99 
70.50,22.89 
71.00,11.87 
71.50,8.52 
72.00,17.80 
72.50,11.73 
73.00,22.58 
73.50,16.28 
74.00,17.13 
74.50,16.48 
75.00,17.51 
75.50,29.31 
76.00,2.66 
76.50,27.12 
77.00,0.00 
77.50,14.67 
78.00,20.54 
78.50,2.78 
79.00,5.99 
79.50,16.60 
80.00,17.85 
80.50,8.61 
81.00,20.49 
81.50,16.62 
82.00,20.36 
82.50,13.91 
83.00,0.00 
83.50,9.30 
84.00,11.81 
84.50,17.34 
85.00,2.83 
85.50,17.37 
86.00,2.88 
86.50,26.78 
87.00,17.35 
87.50,11.78 
88.00,0.00 
88.50,11.29 
89.00,20.16 
89.50,2.90 
90.00,11.04 
90.50,6.01 
91.00,12.15 
91.50,3.07 
92.00,6.30 
92.50,14.15 
93.00,17.30 
93.50,19.62 
94.00,17.55 
94.50,11.70 
95.00,17.80 
95.50,9.32 
96.00,22.85 
96.50,8.82 
97.00,12.03 
97.50,8.47 
98.00,19.49 
98.50,9.06 
99.00,17.43 
99.50,5.99 
100.00,9.14 
100.50,15.03 
101.00,8.44 
101.50,11.88 
102.00,20.51 
102.50,14.66 
103.00,14.11 
103.50,5.78 
104.00,2.92 
104.50,14.81 
105.00,19.98 
105.50,11.25 
106.00,12.19 
106.50,9.03 
107.00,17.46 
107.50,6.19 
108.00,26.16 
108.50,3.25 
109.00,5.59 
109.50,22.74 
110.00,2.89 
110.50,11.88 
111.00,24.68 
111.50,8.99 
112.00,0.00 
112.50,5.69 
113.00,2.77 
113.50,23.08 
114.00,11.70 
114.50,5.99 
115.00,3.39 
115.50,14.10 
116.00,14.76 
116.50,5.82 
117.00,14.59 
117.50,14.16 
118.00,5.73 
118.50,14.17 
119.00,6.30 
119.50,2.82 
120.00,23.37 
120.50,5.46 
121.00,19.91 
121.50,15.82 
122.00,2.79 
122.50,12.19 
123.00,17.62 
123.50,9.41 
124.00,10.99 
124.50,8.82 
125.00,0.00 
125.50,11.62 
126.00,15.26 
126.50,11.85 
127.00,10.76 
127.50,5.86 
128.00,13.99 
128.50,5.62 
129.00,5.71 
129.50,20.31 
130.00,3.00 
130.50,15.25 
131.00,20.10 
131.50,5.88 
132.00,11.35 
132.50,18.56 
133.00,0.00 
133.50,8.69 
134.00,11.50 
134.50,17.30 
135.00,8.82 
135.50,3.20 
136.00,10.43 
136.50,11.67 
137.00,0.00 
137.50,2.85 
138.00,8.68 
138.50,10.81 
139.00,2.85 
139.50,8.59 
140.00,2.95 
140.50,17.26 
141.00,23.44 
141.50,3.22 
142.00,11.87 
142.50,18.19 
143.00,3.38 
143.50,6.35 
144.00,15.95 
144.50,11.54 
145.00,10.77 
145.50,3.02 
146.00,5.95 
146.50,8.41 
147.00,22.89 
147.50,10.98 
148.00,3.07 
148.50,8.69 
149.00,14.59 
149.50,8.40 
150.00,7.49 
150.50,8.84 
151.00,6.28 
151.50,3.14 
152.00,2.79 
152.50,8.79 
153.00,22.85 
153.50,5.84 
154.00,5.77 
154.50,17.66 
155.00,11.99 
155.50,17.14 
156.00,7.41 
156.50,12.13 
157.00,2.95 
157.50,13.79 
158.00,9.31 
158.50,14.89 
159.00,11.28 
159.50,9.12 
160.00,15.10 
160.50,5.87 
161.00,2.96 
161.50,3.16 
162.00,17.90 
162.50,2.66 
163.00,2.86 
163.50,5.90 
164.00,0.00 
164.50,0.00 
165.00,8.43 
165.50,12.44 
166.00,2.64 
166.50,9.09 
167.00,8.51 
167.50,11.72 
168.00,8.53 
168.50,10.38 
169.00,5.53 
169.50,0.00 
170.00,9.28 
170.50,8.54 
171.00,20.27 
171.50,5.97 
172.00,3.20 
172.50,0.00 
173.00,3.11 
173.50,5.59 
174.00,8.15 
174.50,5.63 
175.00,7.04 
175.50,18.36 
176.00,0.00 
176.50,11.11 
177.00,10.66 
177.50,11.69 
178.00,6.08 
178.50,11.69 
179.00,2.95 
179.50,11.66 
180.00,8.36 
180.50,17.51 
181.00,5.32 
181.50,15.47 
182.00,6.45 
182.50,11.87 
183.00,2.92 
183.50,11.44 
184.00,6.01 
184.50,5.84 
185.00,2.78 
185.50,0.00 
186.00,8.53 
186.50,5.78 
187.00,8.85 
187.50,5.96 
188.00,11.81 
188.50,0.00 
189.00,14.58 
189.50,9.10 
190.00,14.04 
190.50,3.01 
191.00,11.56 
191.50,12.14 
192.00,14.27 
192.50,0.00 
193.00,2.93 
193.50,5.69 
194.00,11.85 
194.50,14.33 
195.00,7.52 
195.50,0.00 
196.00,12.06 
196.50,11.99 
197.00,5.80 
197.50,8.81 
198.00,11.85 
198.50,0.00 
199.00,7.93 
199.50,2.79 
200.00,5.67 
200.50,0.00 
201.00,8.75 
201.50,17.27 
202.00,8.40 
202.50,2.99 
203.00,9.05 
203.50,5.23 
204.00,11.49 
204.50,5.94 
205.00,5.89 
205.50,0.00 
206.00,8.58 
206.50,8.56 
207.00,6.06 
207.50,3.20 
208.00,11.52 
208.50,5.11 
209.00,9.30 
209.50,2.65 
210.00,5.62 
210.50,9.38 
211.00,2.67 
211.50,8.79 
212.00,5.44 
212.50,5.56 
213.00,14.02 
213.50,2.59 
214.00,2.89 
214.50,5.83 
215.00,2.96 
215.50,2.95 
216.00,15.87 
216.50,8.81 
217.00,2.74 
217.50,9.26 
218.00,2.78 
218.50,8.68 
219.00,17.15 
219.50,9.07 
220.00,6.16 
220.50,2.97 
221.00,3.08 
221.50,8.79 
222.00,5.90 
222.50,3.23 
223.00,2.98 
223.50,14.80 
224.00,2.90 
224.50,8.82 
225.00,6.15 
225.50,5.85 
226.00,0.00 
226.50,8.53 
227.00,12.06 
227.50,3.20 
228.00,4.96 
228.50,6.32 
229.00,5.66 
229.50,9.06 
230.00,6.23 
230.50,11.77 
231.00,8.37 
231.50,0.00 
232.00,0.00 
232.50,6.40 
233.00,0.00 
233.50,0.00 
234.00,11.74 
234.50,3.16 
235.00,6.28 
235.50,3.11 
236.00,2.82 
236.50,2.56 
237.00,11.54 
237.50,14.59 
238.00,6.00 
238.50,8.87 
239.00,3.30 
239.50,5.47 
240.00,11.33 
240.50,0.00 
241.00,8.38 
241.50,3.04 
242.00,10.92 
242.50,6.21 
243.00,14.11 
243.50,5.78 
244.00,2.58 
244.50,2.75 
245.00,3.03 
245.50,6.25 
246.00,3.38 
246.50,3.15 
247.00,8.60 
247.50,2.69 
248.00,2.76 
248.50,9.10 
249.00,5.86 
249.50,15.02 
250.00,3.07 
250.50,5.86 
251.00,8.71 
251.50,0.00 
252.00,8.60 
252.50,2.96 
253.00,5.70 
253.50,9.55 
254.00,11.03 
254.50,2.73 
255.00,5.85 
255.50,5.98 
256.00,6.03 
256.50,8.41 
257.00,5.83 
257.50,12.16 
258.00,3.38 
258.50,2.86 
259.00,2.85 
259.50,5.40 
260.00,6.04 
260.50,3.16 
261.00,8.56 
261.50,0.00 
262.00,14.44 
262.50,2.98 
263.00,0.00 
263.50,2.65 
264.00,11.77 
264.50,10.92 
265.00,12.68 
265.50,5.79 
266.00,0.00 
266.50,2.97 
267.00,5.73 
267.50,3.03 
268.00,5.53 
268.50,3.06 
269.00,8.85 
269.50,0.00 
270.00,6.06 
270.50,8.70 
271.00,0.00 
271.50,8.52 
272.00,0.00 
272.50,3.04 
273.00,5.89 
273.50,17.66 
274.00,2.71 
274.50,5.91 
275.00,2.57 
275.50,8.30 
276.00,9.13 
276.50,6.12 
277.00,6.01 
277.50,4.28 
278.00,0.00 
278.50,6.04 
279.00,9.16 
279.50,0.00 
280.00,0.00 
280.50,5.68 
281.00,0.00 
281.50,8.89 
282.00,8.96 
282.50,0.00 
283.00,3.04 
283.50,3.04 
284.00,2.88 
284.50,5.89 
285.00,11.05 
285.50,11.89 
286.00,0.00 
286.50,2.96 
287.00,5.83 
287.50,0.00 
288.00,12.17 
288.50,2.77 
289.00,5.84 
289.50,5.62 
290.00,0.00 
290.50,2.86 
291.00,8.39 
291.50,5.84 
292.00,0.00 
292.50,6.08 
293.00,3.02 
293.50,2.89 
294.00,12.44 
294.50,0.00 
295.00,0.00 
295.50,0.00 
296.00,0.00 
296.50,8.89 
297.00,9.19 
297.50,9.11 
298.00,5.41 
298.50,2.69 
299.00,6.45 
299.50,5.76 
300.00,5.60 
300.50,0.00 
301.00,8.67 
301.50,3.03 
302.00,5.67 
302.50,12.80 
303.00,2.90 
303.50,2.64 
304.00,0.00 
304.50,8.76 
305.00,5.57 
305.50,3.00 
306.00,6.12 
306.50,3.11 
307.00,3.15 
307.50,2.89 
308.00,5.59 
308.50,2.85 
309.00,8.01 
309.50,6.50 
310.00,6.39 
310.50,2.82 
311.00,13.63 
311.50,2.86 
312.00,2.76 
312.50,5.73 
313.00,0.00 
313.50,6.20 
314.00,0.00 
314.50,0.00 
315.00,8.31 
315.50,0.00 
316.00,3.00 
316.50,0.00 
317.00,0.00 
317.50,8.68 
318.00,3.03 
318.50,5.84 
319.00,0.00 
319.50,2.95 
320.00,6.00 
320.50,2.86 
321.00,0.00 
321.50,5.97 
322.00,2.88 
322.50,5.80 
323.00,2.77 
323.50,5.99 
324.00,8.74 
324.50,0.00 
325.00,5.62 
325.50,2.87 
326.00,2.75 
326.50,5.77 
327.00,5.91 
327.50,8.52 
328.00,3.21 
328.50,4.17 
329.00,0.00 
329.50,2.88 
330.00,0.00 
330.50,5.25 
331.00,2.79 
331.50,2.68 
332.00,0.00 
332.50,0.00 
333.00,9.24 
333.50,0.00 
334.00,6.42 
334.50,3.11 
335.00,0.00 
335.50,2.63 
336.00,2.78 
336.50,8.86 
337.00,3.00 
337.50,7.25 
338.00,2.86 
338.50,8.58 
339.00,0.00 
339.50,2.98 
340.00,0.00 
340.50,5.94 
341.00,3.11 
341.50,0.00 
342.00,8.73 
342.50,0.00 
343.00,0.00 
343.50,5.85 
344.00,5.84 
344.50,8.41 
345.00,2.43 
345.50,7.93 
346.00,5.76 
346.50,4.30 
347.00,6.13 
347.50,0.00 
348.00,0.00 
348.50,5.41 
349.00,0.00 
349.50,2.82 
350.00,3.32 
350.50,5.83 
351.00,11.19 
351.50,2.88 
352.00,2.71 
352.50,2.94 
353.00,0.00 
353.50,5.05 
354.00,0.00 
354.50,0.00 
355.00,8.83 
355.50,2.68 
356.00,2.71 
356.50,5.77 
357.00,9.03 
357.50,0.00 
358.00,0.00 
358.50,2.64 
359.00,5.79 
359.50,0.00 
360.00,3.02 
360.50,0.00 
361.00,2.82 
361.50,0.00 
362.00,2.82 
362.50,0.00 
363.00,8.46 
363.50,3.16 
364.00,2.75 
364.50,5.92 
365.00,4.49 
365.50,2.94 
366.00,0.00 
366.50,2.55 
367.00,0.00 
367.50,0.00 
368.00,2.77 
368.50,5.97 
369.00,2.79 
369.50,5.96 
370.00,0.00 
370.50,8.99 
371.00,0.00 
371.50,3.25 
372.00,0.00 
372.50,5.46 
373.00,2.72 
373.50,3.40 
374.00,3.21 
374.50,7.38 
375.00,2.87 
375.50,0.00 
376.00,0.00 
376.50,0.00 
377.00,0.00 
377.50,2.73 
378.00,8.66 
378.50,3.14 
379.00,3.18 
379.50,2.89 
380.00,0.00 
380.50,0.00 
381.00,5.91 
381.50,0.00 
382.00,3.05 
382.50,2.75 
383.00,2.62 
383.50,8.68 
384.00,6.58 
384.50,2.77 
385.00,3.10 
385.50,2.96 
386.00,5.98 
386.50,3.05 
387.00,3.30 
387.50,5.62 
388.00,5.58 
388.50,2.83 
389.00,0.00 
389.50,0.00 
390.00,3.03 
390.50,2.86 
391.00,0.00 
391.50,2.93 
392.00,5.94 
392.50,0.00 
393.00,5.78 
393.50,5.43 
394.00,2.62 
394.50,0.00 
395.00,0.00 
395.50,0.00 
396.00,2.86 
396.50,0.00 
397.00,0.00 
397.50,6.25 
398.00,2.94 
398.50,8.67 
399.00,3.37 
399.50,2.68 
400.00,0.00 
400.50,5.47 
401.00,0.00 
401.50,2.79 
402.00,2.54 
402.50,2.93 
403.00,6.06 
403.50,4.09 
404.00,5.98 
404.50,0.00 
405.00,2.86 
405.50,0.00 
406.00,2.99 
406.50,3.50 
407.00,0.00 
407.50,2.44 
408.00,2.56 
408.50,2.70 
409.00,2.72 
409.50,2.82 
410.00,0.00 
410.50,6.01 
411.00,0.00 
411.50,2.92 
412.00,0.00 
412.50,2.57 
413.00,6.20 
413.50,0.00 
414.00,2.59 
414.50,0.00 
415.00,2.90 
415.50,0.00 
416.00,2.97 
416.50,3.05 
417.00,2.92 
417.50,5.67 
418.00,2.88 
418.50,3.11 
419.00,3.23 
419.50,3.08 
420.00,0.00 
420.50,5.72 
421.00,0.00 
421.50,0.00 
422.00,0.00 
422.50,3.19 
423.00,5.95 
423.50,0.00 
424.00,2.86 
424.50,0.00 
425.00,2.66 
425.50,0.00 
426.00,2.79 
426.50,2.45 
427.00,0.00 
427.50,2.64 
428.00,2.52 
428.50,2.64 
429.00,0.00 
429.50,0.00 
430.00,0.00 
430.50,3.14 
431.00,0.00 
431.50,0.00 
432.00,6.55 
432.50,3.07 
433.00,3.18 
433.50,7.40 
434.00,0.00 
434.50,0.00 
435.00,2.86 
435.50,0.00 
436.00,2.89 
436.50,3.18 
437.00,0.00 
437.50,3.14 
438.00,3.10 
438.50,5.79 
439.00,2.81 
439.50,3.14 
440.00,2.89 
440.50,0.00 
441.00,2.96 
441.50,2.97 
442.00,0.00 
442.50,0.00 
443.00,0.00 
443.50,6.04 
444.00,0.00 
444.50,2.84 
445.00,0.00 
445.50,5.83 
446.00,0.00 
446.50,2.58 
447.00,5.97 
447.50,0.00 
448.00,0.00 
448.50,3.12 
449.00,2.91 
449.50,0.00 
450.00,0.00 
450.50,0.00 
451.00,0.00 
451.50,3.21 
452.00,3.34 
452.50,0.00 
453.00,0.00 
453.50,2.75 
454.00,8.95 
454.50,0.00 
455.00,3.45 
455.50,0.00 
456.00,2.95 
456.50,0.00 
457.00,0.00 
457.50,5.76 
458.00,0.00 
458.50,0.00 
459.00,2.51 
459.50,0.00 
460.00,0.00 
460.50,0.00 
461.00,0.00 
461.50,0.00 
462.00,0.00 
462.50,2.76 
463.00,0.00 
463.50,0.00 
464.00,2.86 
464.50,8.11 
465.00,0.00 
465.50,2.86 
466.00,0.00 
466.50,2.91 
467.00,0.00 
467.50,2.51 
468.00,2.98 
468.50,0.00 
469.00,0.00 
469.50,2.97 
470.00,2.81 
470.50,2.77 
471.00,0.00 
471.50,2.89 
472.00,0.00 
472.50,0.00 
473.00,2.79 
473.50,0.00 
474.00,0.00 
474.50,0.00 
475.00,2.79 
475.50,0.00 
476.00,0.00 
476.50,0.00 
477.00,0.00 
477.50,0.00 
478.00,2.79 
478.50,0.00 
479.00,0.00 
479.50,2.92 
480.00,2.79 
480.50,6.16 
481.00,0.00 
481.50,0.00 
482.00,0.00 
482.50,0.00 
483.00,2.94 
483.50,0.00 
484.00,0.00 
484.50,3.09 
485.00,3.31 
485.50,2.82 
486.00,4.55 
486.50,0.00 
487.00,2.49 
487.50,0.00 
488.00,2.75 
488.50,0.00 
489.00,2.67 
489.50,2.52 
490.00,0.00 
490.50,0.00 
491.00,2.68 
491.50,2.94 
492.00,0.00 
492.50,0.00 
493.00,2.69 
493.50,0.00 
494.00,2.56 
494.50,0.00 
495.00,0.00 
495.50,0.00 
496.00,2.90 
496.50,2.52 
497.00,0.00 
497.50,0.00 
498.00,0.00 
498.50,0.00 
499.00,2.95 
499.50,0.00 
500.00,0.00 
500.50,2.74 
501.00,2.79 
501.50,3.07 
502.00,3.07 
502.50,0.00 
503.00,0.00 
503.50,0.00 
504.00,0.00 
504.50,0.00 
505.00,3.00 
505.50,0.00 
506.00,0.00 
506.50,0.00 
507.00,2.92 
507.50,2.58 
508.00,0.00 
508.50,0.00 
509.00,0.00 
509.50,0.00 
510.00,0.00 
510.50,0.00 
511.00,0.00 
511.50,3.01 
512.00,0.00 
512.50,0.00 
513.00,2.66 
513.50,0.00 
514.00,0.00 
514.50,0.00 
515.00,0.00 
515.50,0.00 
516.00,0.00 
516.50,0.00 
517.00,0.00 
517.50,2.58 
518.00,3.05 
518.50,2.82 
519.00,3.88 
519.50,0.00 
520.00,0.00 
520.50,0.00 
521.00,0.00 
521.50,0.00 
522.00,0.00 
522.50,0.00 
523.00,0.00 
523.50,0.00 
524.00,0.00 
524.50,5.68 
525.00,0.00 
525.50,0.00 
526.00,0.00 
526.50,0.00 
527.00,0.00 
527.50,0.00 
528.00,0.00 
528.50,0.00 
529.00,0.00 
529.50,2.91 
530.00,5.78 
530.50,0.00 
531.00,0.00 
531.50,0.00 
532.00,0.00 
532.50,0.00 
533.00,0.00 
533.50,0.00 
534.00,0.00 
534.50,2.99 
535.00,2.96 
535.50,2.94 
536.00,0.00 
536.50,0.00 
537.00,0.00 
537.50,0.00 
538.00,0.00 
538.50,0.00 
539.00,0.00 
539.50,0.00 
540.00,0.00 
540.50,3.06 
541.00,2.83 
541.50,4.53 
542.00,0.00 
542.50,0.00 
543.00,0.00 
543.50,0.00 
544.00,0.00 
544.50,0.00 
545.00,0.00 
545.50,0.00 
546.00,0.00 
546.50,3.01 
547.00,2.75 
547.50,0.00 
548.00,0.00 
548.50,0.00 
549.00,0.00 
549.50,0.00 
550.00,0.00 
550.50,0.00 
551.00,0.00 
551.50,0.00 
552.00,0.00 
552.50,3.04 
553.00,4.79 
553.50,0.00 
554.00,0.00 
554.50,0.00 
555.00,0.00 
555.50,0.00 
556.00,0.00 
556.50,0.00 
557.00,0.00 
557.50,0.00 
558.00,0.00 
558.50,3.07 
559.00,0.00 
559.50,0.00 
560.00,0.00 
560.50,0.00 
561.00,0.00 
561.50,0.00 
562.00,0.00 
562.50,0.00 
563.00,0.00 
563.50,0.00 
564.00,0.00 
564.50,4.43 
565.00,0.00 
565.50,0.00 
566.00,0.00 
566.50,0.00 
567.00,0.00 
567.50,0.00 
568.00,0.00 
568.50,0.00 
569.00,0.00 
569.50,0.00 
570.00,0.00 
570.50,0.00 
571.00,0.00 
571.50,0.00 
572.00,0.00 
572.50,0.00 
573.00,0.00 
573.50,0.00 
574.00,0.00 
574.50,0.00 
575.00,0.00 
575.50,0.00 
576.00,0.00 
576.50,0.00 
577.00,0.00 
577.50,0.00 
578.00,0.00 
578.50,0.00 
579.00,0.00 
579.50,0.00 
580.00,0.00 
580.50,0.00 
581.00,0.00 
581.50,0.00 
582.00,2.67 
582.50,0.00 
583.00,0.00 
583.50,0.00 
584.00,0.00 
584.50,0.00 
585.00,0.00 
585.50,0.00 
586.00,0.00 
586.50,0.00 
587.00,0.00 
587.50,0.00 
588.00,1.27 
588.50,0.00 
589.00,0.00 
589.50,0.00 
590.00,0.00 
590.50,0.00 
591.00,0.00 
591.50,0.00 
592.00,0.00 
592.50,0.00 
593.00,0.00 
593.50,0.00 
594.00,0.00 
594.50,0.00 
595.00,0.00 
595.50,0.00 
596.00,0.00 
596.50,0.00 
597.00,0.00 
597.50,0.00 
598.00,0.00 
598.50,0.00 
599.00,0.00 
599.50,0.00 
" />
<polyline stroke="black" fill="transparent" points="
0.00,0.00 
0.50,0.00 
1.00,0.00 
1.50,0.00 
2.00,0.00 
2.50,0.00 
3.00,300.00 
3.50,18.27 
4.00,24.64 
4.50,29.96 
5.00,26.06 
5.50,28.23 
6.00,42.59 
6.50,32.91 
7.00,28.92 
7.50,31.30 
8.00,32.84 
8.50,38.57 
9.00,36.84 
9.50,23.74 
10.00,17.90 
10.50,26.01 
11.00,29.42 
11.50,22.89 
12.00,28.86 
12.50,20.63 
13.00,31.16 
13.50,29.32 
14.00,22.96 
14.50,26.03 
15.00,28.98 
15.50,35.49 
16.00,24.66 
16.50,21.58 
17.00,20.15 
17.50,31.82 
18.00,34.71 
18.50,20.55 
19.00,15.03 
19.50,25.18 
20.00,16.78 
20.50,11.75 
21.00,23.72 
21.50,17.51 
22.00,17.72 
22.50,22.08 
23.00,8.73 
23.50,27.26 
24.00,38.03 
24.50,31.18 
25.00,14.69 
25.50,21.15 
26.00,23.61 
26.50,29.00 
27.00,21.87 
27.50,21.21 
28.00,16.77 
28.50,17.62 
29.00,28.75 
29.50,29.00 
30.00,30.99 
30.50,14.12 
31.00,19.98 
31.50,22.82 
32.00,13.59 
32.50,20.89 
33.00,8.99 
33.50,14.64 
34.00,14.31 
34.50,10.95 
35.00,14.90 
35.50,20.12 
36.00,26.65 
36.50,29.48 
37.00,11.54 
37.50,27.97 
38.00,17.46 
38.50,8.74 
39.00,28.83 
39.50,17.22 
40.00,17.68 
40.50,24.73 
41.00,3.12 
41.50,11.92 
42.00,32.20 
42.50,25.83 
43.00,14.79 
43.50,12.66 
44.00,17.03 
44.50,20.98 
45.00,23.05 
45.50,6.30 
46.00,5.52 
46.50,9.69 
47.00,8.74 
47.50,14.90 
48.00,22.58 
48.50,17.86 
49.00,23.56 
49.50,14.22 
50.00,21.73 
50.50,26.95 
51.00,26.70 
51.50,14.67 
52.00,15.37 
52.50,11.48 
53.00,12.45 
53.50,24.69 
54.00,16.25 
54.50,18.08 
55.00,9.00 
55.50,14.48 
56.00,23.21 
56.50,14.03 
57.00,29.95 
57.50,10.96 
58.00,11.72 
58.50,23.30 
59.00,5.95 
59.50,8.86 
60.00,23.41 
60.50,26.10 
61.00,14.02 
61.50,12.01 
62.00,6.12 
62.50,22.74 
63.00,14.57 
63.50,24.35 
64.00,2.94 
64.50,23.95 
65.00,17.26 
65.50,11.19 
66.00,14.64 
66.50,5.85 
67.00,14.98 
67.50,5.85 
68.00,5.54 
68.50,18.31 
69.00,17.16 
69.50,8.91 
70.00,14.24 
70.50,9.31 
71.00,11.72 
71.50,14.39 
72.00,25.04 
72.50,12.25 
73.00,5.89 
73.50,23.43 
74.00,12.25 
74.50,8.90 
75.00,18.14 
75.50,11.17 
76.00,23.79 
76.50,16.25 
77.00,17.05 
77.50,16.82 
78.00,17.00 
78.50,29.94 
79.00,3.05 
79.50,26.00 
80.00,0.00 
80.50,14.75 
81.00,19.84 
81.50,2.74 
82.00,5.47 
82.50,18.08 
83.00,17.14 
83.50,8.42 
84.00,21.01 
84.50,17.94 
85.00,19.50 
85.50,13.98 
86.00,0.00 
86.50,8.64 
87.00,12.21 
87.50,18.30 
88.00,2.55 
88.50,16.84 
89.00,2.82 
89.50,25.56 
90.00,18.29 
90.50,11.27 
91.00,0.00 
91.50,11.17 
92.00,19.94 
92.50,3.00 
93.00,11.44 
93.50,5.81 
94.00,11.76 
94.50,2.71 
95.00,5.93 
95.50,13.97 
96.00,17.22 
96.50,19.13 
97.00,17.42 
97.50,11.65 
98.00,17.72 
98.50,8.23 
99.00,21.52 
99.50,9.29 
100.00,11.17 
100.50,8.29 
101.00,20.64 
101.50,7.76 
102.00,17.89 
102.50,5.65 
103.00,8.85 
103.50,13.78 
104.00,8.28 
104.50,11.43 
105.00,21.36 
105.50,13.69 
106.00,14.23 
106.50,5.51 
107.00,2.57 
107.50,14.87 
108.00,20.40 
108.50,12.05 
109.00,12.05 
109.50,8.46 
110.00,17.41 
110.50,5.59 
111.00,27.00 
111.50,3.12 
112.00,5.76 
112.50,22.96 
113.00,3.02 
113.50,12.04 
114.00,24.71 
114.50,9.05 
115.00,0.00 
115.50,5.81 
116.00,2.79 
116.50,22.49 
117.00,11.96 
117.50,6.23 
118.00,2.81 
118.50,14.71 
119.00,14.08 
119.50,5.70 
120.00,14.39 
120.50,14.53 
121.00,6.15 
121.50,14.74 
122.00,5.71 
122.50,2.78 
123.00,22.37 
123.50,5.88 
124.00,20.91 
124.50,15.85 
125.00,3.10 
125.50,11.63 
126.00,16.26 
126.50,8.60 
127.00,12.59 
127.50,8.61 
128.00,0.00 
128.50,11.20 
129.00,14.72 
129.50,11.44 
130.00,10.39 
130.50,5.92 
131.00,14.89 
131.50,5.81 
132.00,5.86 
132.50,20.09 
133.00,2.94 
133.50,14.26 
134.00,19.62 
134.50,5.59 
135.00,12.05 
135.50,18.71 
136.00,0.00 
136.50,8.10 
137.00,12.31 
137.50,17.98 
138.00,8.75 
138.50,2.84 
139.00,11.67 
139.50,11.41 
140.00,0.00 
140.50,3.14 
141.00,8.95 
141.50,11.52 
142.00,3.12 
142.50,8.59 
143.00,2.64 
143.50,17.93 
144.00,22.62 
144.50,3.26 
145.00,11.54 
145.50,17.98 
146.00,2.83 
146.50,6.28 
147.00,15.85 
147.50,11.63 
148.00,11.28 
148.50,3.08 
149.00,5.62 
149.50,8.75 
150.00,23.19 
150.50,11.89 
151.00,2.91 
151.50,8.97 
152.00,14.86 
152.50,8.26 
153.00,7.58 
153.50,9.30 
154.00,5.81 
154.50,2.88 
155.00,2.47 
155.50,9.02 
156.00,23.37 
156.50,5.74 
157.00,5.30 
157.50,17.73 
158.00,11.58 
158.50,16.90 
159.00,6.98 
159.50,11.04 
160.00,2.98 
160.50,14.88 
161.00,8.89 
161.50,14.27 
162.00,11.54 
162.50,9.64 
163.00,13.66 
163.50,5.47 
164.00,2.93 
164.50,3.16 
165.00,17.93 
165.50,3.36 
166.00,3.04 
166.50,6.25 
167.00,0.00 
167.50,0.00 
168.00,9.15 
168.50,12.00 
169.00,3.12 
169.50,8.80 
170.00,8.72 
170.50,11.64 
171.00,9.24 
171.50,10.37 
172.00,6.09 
172.50,0.00 
173.00,9.02 
173.50,8.63 
174.00,21.04 
174.50,5.55 
175.00,2.95 
175.50,0.00 
176.00,3.12 
176.50,5.89 
177.00,8.74 
177.50,6.32 
178.00,6.89 
178.50,17.74 
179.00,0.00 
179.50,11.43 
180.00,11.39 
180.50,10.95 
181.00,6.17 
181.50,11.54 
182.00,2.83 
182.50,11.85 
183.00,9.18 
183.50,17.62 
184.00,5.95 
184.50,16.63 
185.00,6.16 
185.50,11.68 
186.00,3.05 
186.50,11.11 
187.00,6.12 
187.50,5.90 
188.00,2.91 
188.50,0.00 
189.00,9.31 
189.50,6.10 
190.00,9.21 
190.50,5.57 
191.00,11.42 
191.50,0.00 
192.00,15.00 
192.50,8.79 
193.00,14.22 
193.50,3.02 
194.00,11.14 
194.50,11.76 
195.00,14.21 
195.50,0.00 
196.00,2.87 
196.50,5.65 
197.00,11.64 
197.50,14.42 
198.00,7.47 
198.50,0.00 
199.00,11.24 
199.50,12.01 
200.00,5.69 
200.50,8.57 
201.00,12.12 
201.50,0.00 
202.00,8.74 
202.50,2.67 
203.00,5.47 
203.50,0.00 
204.00,8.47 
204.50,17.58 
205.00,9.08 
205.50,3.08 
206.00,8.59 
206.50,6.21 
207.00,11.95 
207.50,5.66 
208.00,5.99 
208.50,0.00 
209.00,8.32 
209.50,8.68 
210.00,5.93 
210.50,2.77 
211.00,11.54 
211.50,5.83 
212.00,8.41 
212.50,3.01 
213.00,6.11 
213.50,8.02 
214.00,2.84 
214.50,8.75 
215.00,5.63 
215.50,5.89 
216.00,14.98 
216.50,3.02 
217.00,3.20 
217.50,5.92 
218.00,2.93 
218.50,2.93 
219.00,16.54 
219.50,8.98 
220.00,3.01 
220.50,8.63 
221.00,2.78 
221.50,8.25 
222.00,17.81 
222.50,9.01 
223.00,5.99 
223.50,2.73 
224.00,2.84 
224.50,9.07 
225.00,5.75 
225.50,3.42 
226.00,2.79 
226.50,14.49 
227.00,3.28 
227.50,8.46 
228.00,5.93 
228.50,5.62 
229.00,0.00 
229.50,8.45 
230.00,12.12 
230.50,2.95 
231.00,6.42 
231.50,6.06 
232.00,5.62 
232.50,8.67 
233.00,6.13 
233.50,11.59 
234.00,8.67 
234.50,0.00 
235.00,0.00 
235.50,6.00 
236.00,0.00 
236.50,0.00 
237.00,11.57 
237.50,3.15 
238.00,6.11 
238.50,2.89 
239.00,2.91 
239.50,3.50 
240.00,11.39 
240.50,14.74 
241.00,6.43 
241.50,7.86 
242.00,2.77 
242.50,5.56 
243.00,11.76 
243.50,0.00 
244.00,9.04 
244.50,3.10 
245.00,11.56 
245.50,5.36 
246.00,14.78 
246.50,5.79 
247.00,3.20 
247.50,3.06 
248.00,2.66 
248.50,6.58 
249.00,2.91 
249.50,2.77 
250.00,8.92 
250.50,3.15 
251.00,2.73 
251.50,8.80 
252.00,5.98 
252.50,14.42 
253.00,2.54 
253.50,5.90 
254.00,8.57 
254.50,0.00 
255.00,9.45 
255.50,3.05 
256.00,5.78 
256.50,9.72 
257.00,11.96 
257.50,2.88 
258.00,6.30 
258.50,6.12 
259.00,5.63 
259.50,8.02 
260.00,6.44 
260.50,11.75 
261.00,3.21 
261.50,2.59 
262.00,3.04 
262.50,6.31 
263.00,5.96 
263.50,3.10 
264.00,9.06 
264.50,0.00 
265.00,14.96 
265.50,2.98 
266.00,0.00 
266.50,2.92 
267.00,11.60 
267.50,11.49 
268.00,11.89 
268.50,6.06 
269.00,0.00 
269.50,2.68 
270.00,5.91 
270.50,2.93 
271.00,5.59 
271.50,2.36 
272.00,8.55 
272.50,0.00 
273.00,5.98 
273.50,9.04 
274.00,0.00 
274.50,8.88 
275.00,0.00 
275.50,3.23 
276.00,5.50 
276.50,17.50 
277.00,2.60 
277.50,5.80 
278.00,2.57 
278.50,8.43 
279.00,8.17 
279.50,5.48 
280.00,5.76 
280.50,4.07 
281.00,0.00 
281.50,5.68 
282.00,9.08 
282.50,0.00 
283.00,0.00 
283.50,5.61 
284.00,0.00 
284.50,7.96 
285.00,8.15 
285.50,0.00 
286.00,3.34 
286.50,2.93 
287.00,2.93 
287.50,5.74 
288.00,11.65 
288.50,11.97 
289.00,0.00 
289.50,2.92 
290.00,5.87 
290.50,0.00 
291.00,11.83 
291.50,2.50 
292.00,6.31 
292.50,5.68 
293.00,0.00 
293.50,2.83 
294.00,8.87 
294.50,5.69 
295.00,0.00 
295.50,6.17 
296.00,3.14 
296.50,2.73 
297.00,13.41 
297.50,0.00 
298.00,0.00 
298.50,0.00 
299.00,0.00 
299.50,8.25 
300.00,8.46 
300.50,8.45 
301.00,5.73 
301.50,3.05 
302.00,6.09 
302.50,5.22 
303.00,5.25 
303.50,0.00 
304.00,9.48 
304.50,3.50 
305.00,5.74 
305.50,12.77 
306.00,3.44 
306.50,2.77 
307.00,0.00 
307.50,8.42 
308.00,5.56 
308.50,2.82 
309.00,5.69 
309.50,2.64 
310.00,2.71 
310.50,2.95 
311.00,6.12 
311.50,3.12 
312.00,8.81 
312.50,5.53 
313.00,5.04 
313.50,3.19 
314.00,12.49 
314.50,2.91 
315.00,2.98 
315.50,6.35 
316.00,0.00 
316.50,5.79 
317.00,0.00 
317.50,0.00 
318.00,8.75 
318.50,0.00 
319.00,2.73 
319.50,0.00 
320.00,0.00 
320.50,8.95 
321.00,2.92 
321.50,6.58 
322.00,0.00 
322.50,2.90 
323.00,5.59 
323.50,2.77 
324.00,0.00 
324.50,5.45 
325.00,2.82 
325.50,6.32 
326.00,2.83 
326.50,5.56 
327.00,8.74 
327.50,0.00 
328.00,5.51 
328.50,3.04 
329.00,2.83 
329.50,6.06 
330.00,6.14 
330.50,8.85 
331.00,2.71 
331.50,4.55 
332.00,0.00 
332.50,2.64 
333.00,0.00 
333.50,5.86 
334.00,2.43 
334.50,3.07 
335.00,0.00 
335.50,0.00 
336.00,8.52 
336.50,0.00 
337.00,5.74 
337.50,2.70 
338.00,0.00 
338.50,2.80 
339.00,3.14 
339.50,8.81 
340.00,3.00 
340.50,7.65 
341.00,3.15 
341.50,8.93 
342.00,0.00 
342.50,2.84 
343.00,0.00 
343.50,6.09 
344.00,2.60 
344.50,0.00 
345.00,9.39 
345.50,0.00 
346.00,0.00 
346.50,5.16 
347.00,5.99 
347.50,8.98 
348.00,3.17 
348.50,8.86 
349.00,5.83 
349.50,4.24 
350.00,5.73 
350.50,0.00 
351.00,0.00 
351.50,5.33 
352.00,0.00 
352.50,2.70 
353.00,3.18 
353.50,5.99 
354.00,11.90 
354.50,3.02 
355.00,2.84 
355.50,3.37 
356.00,0.00 
356.50,6.17 
357.00,0.00 
357.50,0.00 
358.00,8.79 
358.50,3.09 
359.00,2.64 
359.50,5.89 
360.00,9.26 
360.50,0.00 
361.00,0.00 
361.50,3.02 
362.00,6.09 
362.50,0.00 
363.00,2.63 
363.50,0.00 
364.00,3.02 
364.50,0.00 
365.00,2.72 
365.50,0.00 
366.00,8.39 
366.50,2.63 
367.00,2.93 
367.50,6.02 
368.00,4.61 
368.50,3.30 
369.00,0.00 
369.50,2.61 
370.00,0.00 
370.50,0.00 
371.00,3.51 
371.50,5.73 
372.00,2.88 
372.50,5.18 
373.00,0.00 
373.50,8.58 
374.00,0.00 
374.50,2.96 
375.00,0.00 
375.50,5.43 
376.00,3.28 
376.50,3.02 
377.00,3.16 
377.50,7.65 
378.00,2.82 
378.50,0.00 
379.00,0.00 
379.50,0.00 
380.00,0.00 
380.50,3.02 
381.00,8.17 
381.50,3.12 
382.00,2.72 
382.50,3.20 
383.00,0.00 
383.50,0.00 
384.00,5.99 
384.50,0.00 
385.00,3.06 
385.50,3.07 
386.00,3.12 
386.50,8.76 
387.00,7.64 
387.50,2.58 
388.00,3.12 
388.50,2.96 
389.00,5.58 
389.50,2.75 
390.00,3.01 
390.50,5.80 
391.00,5.88 
391.50,2.91 
392.00,0.00 
392.50,0.00 
393.00,2.78 
393.50,2.75 
394.00,0.00 
394.50,2.83 
395.00,6.05 
395.50,0.00 
396.00,5.96 
396.50,5.88 
397.00,3.28 
397.50,0.00 
398.00,0.00 
398.50,0.00 
399.00,2.91 
399.50,0.00 
400.00,0.00 
400.50,5.89 
401.00,3.27 
401.50,8.32 
402.00,3.04 
402.50,3.02 
403.00,0.00 
403.50,5.79 
404.00,0.00 
404.50,2.80 
405.00,2.88 
405.50,2.67 
406.00,5.97 
406.50,4.88 
407.00,6.46 
407.50,0.00 
408.00,3.14 
408.50,0.00 
409.00,2.62 
409.50,2.59 
410.00,0.00 
410.50,2.91 
411.00,2.98 
411.50,2.79 
412.00,2.83 
412.50,2.87 
413.00,0.00 
413.50,5.91 
414.00,0.00 
414.50,2.43 
415.00,0.00 
415.50,3.11 
416.00,5.60 
416.50,0.00 
417.00,2.71 
417.50,0.00 
418.00,2.86 
418.50,0.00 
419.00,2.36 
419.50,3.12 
420.00,3.01 
420.50,6.23 
421.00,3.12 
421.50,2.76 
422.00,3.01 
422.50,2.88 
423.00,0.00 
423.50,6.27 
424.00,0.00 
424.50,0.00 
425.00,0.00 
425.50,3.15 
426.00,5.80 
426.50,0.00 
427.00,3.05 
427.50,0.00 
428.00,3.02 
428.50,0.00 
429.00,2.96 
429.50,2.97 
430.00,0.00 
430.50,2.95 
431.00,3.02 
431.50,2.73 
432.00,0.00 
432.50,0.00 
433.00,0.00 
433.50,3.01 
434.00,0.00 
434.50,0.00 
435.00,5.84 
435.50,3.32 
436.00,2.74 
436.50,7.22 
437.00,0.00 
437.50,0.00 
438.00,2.92 
438.50,0.00 
439.00,3.01 
439.50,2.56 
440.00,0.00 
440.50,3.19 
441.00,3.15 
441.50,5.57 
442.00,2.75 
442.50,2.82 
443.00,3.12 
443.50,0.00 
444.00,3.36 
444.50,2.66 
445.00,0.00 
445.50,0.00 
446.00,0.00 
446.50,6.27 
447.00,0.00 
447.50,2.61 
448.00,0.00 
448.50,6.03 
449.00,0.00 
449.50,3.08 
450.00,5.73 
450.50,0.00 
451.00,0.00 
451.50,2.85 
452.00,2.80 
452.50,0.00 
453.00,0.00 
453.50,0.00 
454.00,0.00 
454.50,3.13 
455.00,2.68 
455.50,0.00 
456.00,0.00 
456.50,2.88 
457.00,9.14 
457.50,0.00 
458.00,2.81 
458.50,0.00 
459.00,2.80 
459.50,0.00 
460.00,0.00 
460.50,6.04 
461.00,0.00 
461.50,0.00 
462.00,2.83 
462.50,0.00 
463.00,0.00 
463.50,0.00 
464.00,0.00 
464.50,0.00 
465.00,0.00 
465.50,2.95 
466.00,0.00 
466.50,0.00 
467.00,2.77 
467.50,8.94 
468.00,0.00 
468.50,3.04 
469.00,0.00 
469.50,3.06 
470.00,0.00 
470.50,2.80 
471.00,2.85 
471.50,0.00 
472.00,0.00 
472.50,2.84 
473.00,2.71 
473.50,2.64 
474.00,0.00 
474.50,3.16 
475.00,0.00 
475.50,0.00 
476.00,2.93 
476.50,0.00 
477.00,0.00 
477.50,0.00 
478.00,3.26 
478.50,0.00 
479.00,0.00 
479.50,0.00 
480.00,0.00 
480.50,0.00 
481.00,2.83 
481.50,0.00 
482.00,0.00 
482.50,2.82 
483.00,2.74 
483.50,6.18 
484.00,0.00 
484.50,0.00 
485.00,0.00 
485.50,0.00 
486.00,3.05 
486.50,0.00 
487.00,0.00 
487.50,3.58 
488.00,2.80 
488.50,3.39 
489.00,4.39 
489.50,0.00 
490.00,3.02 
490.50,0.00 
491.00,2.98 
491.50,0.00 
492.00,2.82 
492.50,2.65 
493.00,0.00 
493.50,0.00 
494.00,3.35 
494.50,2.82 
495.00,0.00 
495.50,0.00 
496.00,2.89 
496.50,0.00 
497.00,3.05 
497.50,0.00 
498.00,0.00 
498.50,0.00 
499.00,2.68 
499.50,3.05 
500.00,0.00 
500.50,0.00 
501.00,0.00 
501.50,0.00 
502.00,2.71 
502.50,0.00 
503.00,0.00 
503.50,3.02 
504.00,3.01 
504.50,3.06 
505.00,2.93 
505.50,0.00 
506.00,0.00 
506.50,0.00 
507.00,0.00 
507.50,0.00 
508.00,2.88 
508.50,0.00 
509.00,0.00 
509.50,0.00 
510.00,2.81 
510.50,2.99 
511.00,0.00 
511.50,0.00 
512.00,0.00 
512.50,0.00 
513.00,0.00 
513.50,0.00 
514.00,0.00 
514.50,3.01 
515.00,0.00 
515.50,0.00 
516.00,3.24 
516.50,0.00 
517.00,0.00 
517.50,0.00 
518.00,0.00 
518.50,0.00 
519.00,0.00 
519.50,0.00 
520.00,0.00 
520.50,3.48 
521.00,2.82 
521.50,2.87 
522.00,4.68 
522.50,0.00 
523.00,0.00 
523.50,0.00 
524.00,0.00 
524.50,0.00 
525.00,0.00 
525.50,0.00 
526.00,0.00 
526.50,0.00 
527.00,0.00 
527.50,5.48 
528.00,0.00 
528.50,0.00 
529.00,0.00 
529.50,0.00 
530.00,0.00 
530.50,0.00 
531.00,0.00 
531.50,0.00 
532.00,0.00 
532.50,3.05 
533.00,5.55 
533.50,0.00 
534.00,0.00 
534.50,0.00 
535.00,0.00 
535.50,0.00 
536.00,0.00 
536.50,0.00 
537.00,0.00 
537.50,2.88 
538.00,2.82 
538.50,2.75 
539.00,0.00 
539.50,0.00 
540.00,0.00 
540.50,0.00 
541.00,0.00 
541.50,0.00 
542.00,0.00 
542.50,0.00 
543.00,0.00 
543.50,2.77 
544.00,3.05 
544.50,4.18 
545.00,0.00 
545.50,0.00 
546.00,0.00 
546.50,0.00 
547.00,0.00 
547.50,0.00 
548.00,0.00 
548.50,0.00 
549.00,0.00 
549.50,2.92 
550.00,2.83 
550.50,0.00 
551.00,0.00 
551.50,0.00 
552.00,0.00 
552.50,0.00 
553.00,0.00 
553.50,0.00 
554.00,0.00 
554.50,0.00 
555.00,0.00 
555.50,3.01 
556.00,4.35 
556.50,0.00 
557.00,0.00 
557.50,0.00 
558.00,0.00 
558.50,0.00 
559.00,0.00 
559.50,0.00 
560.00,0.00 
560.50,0.00 
561.00,0.00 
561.50,2.93 
562.00,0.00 
562.50,0.00 
563.00,0.00 
563.50,0.00 
564.00,0.00 
564.50,0.00 
565.00,0.00 
565.50,0.00 
566.00,0.00 
566.50,0.00 
567.00,0.00 
567.50,4.64 
568.00,0.00 
568.50,0.00 
569.00,0.00 
569.50,0.00 
570.00,0.00 
570.50,0.00 
571.00,0.00 
571.50,0.00 
572.00,0.00 
572.50,0.00 
573.00,0.00 
573.50,0.00 
574.00,0.00 
574.50,0.00 
575.00,0.00 
575.50,0.00 
576.00,0.00 
576.50,0.00 
577.00,0.00 
577.50,0.00 
578.00,0.00 
578.50,0.00 
579.00,0.00 
579.50,0.00 
580.00,0.00 
580.50,0.00 
581.00,0.00 
581.50,0.00 
582.00,0.00 
582.50,0.00 
583.00,0.00 
583.50,0.00 
584.00,0.00 
584.50,0.00 
585.00,2.94 
585.50,0.00 
586.00,0.00 
586.50,0.00 
587.00,0.00 
587.50,0.00 
588.00,0.00 
588.50,0.00 
589.00,0.00 
589.50,0.00 
590.00,0.00 
590.50,0.00 
591.00,1.27 
591.50,0.00 
592.00,0.00 
592.50,0.00 
593.00,0.00 
593.50,0.00 
594.00,0.00 
594.50,0.00 
595.00,0.00 
595.50,0.00 
596.00,0.00 
596.50,0.00 
597.00,0.00 
597.50,0.00 
598.00,0.00 
598.50,0.00 
599.00,0.00 
599.50,0.00 
" />
</g>
</g>
</g>
</svg>
